<svg width="115" height="48" fill="none" xmlns="http://www.w3.org/2000/svg"><g clip-path="url(#a)" fill="#535861"><path d="m44.44 24.31-.17-2.46 1.32-.13v-6.89l-1.32-.14.17-2.3h5.97v2.46l-1.2.13v2.04h3.97v-2.04l-1.33-.13.17-2.45h5.97v2.45l-1.18.13v6.91l1.35.1-.17 2.32h-5.97l-.17-2.46 1.33-.13v-2.1h-3.97v2.12l1.37.1-.17 2.47h-5.97Z"/><path fill-rule="evenodd" clip-rule="evenodd" d="M64.1 14.76c-3.32 0-5.16 1.8-5.16 4.88 0 3.06 1.84 5.07 5.16 5.07 3.13 0 5.17-2 5.17-5.07 0-3.08-1.86-4.88-5.17-4.88Zm0 2.42c1.21 0 1.57.9 1.57 2.5s-.36 2.63-1.58 2.63c-1.22 0-1.57-1.04-1.57-2.64s.35-2.49 1.57-2.49Zm5.92 4.67.14 2.46h5c3.35 0 4.8-.92 4.8-2.84 0-1.06-.78-1.63-1.6-1.96.67-.4 1.26-1 1.26-1.83 0-1.6-.95-2.53-4.58-2.53h-4.79l-.16 2.45.87.13v4l-.94.12Zm5.65-2.96a.74.74 0 0 0 .63-.76c0-.5-.27-.73-1.27-.73h-.77v1.49h1.4Zm-1.4 1.66v1.5h.87c1.1 0 1.4-.27 1.4-.82 0-.46-.24-.68-1.18-.68h-1.1Zm7.45 1.17-.95.13.14 2.46h5c3.25 0 4.91-1.23 4.91-3.5 0-2.18-1.95-2.97-4.9-2.97h-.73v-2.7h-4.17l-.16 2.46.86.13v4Zm10.25 2.6v-7.08l-.54-.13.14-1.96h4.56v2.45l-.71.11v4.18l.96.11-.16 2.3-4.25.01Zm-6.8-4.26v1.98h.66c.86 0 1.4-.28 1.4-1.14 0-.79-.63-.84-1.38-.84h-.67Zm19.12-9.1v.15c0 .24-.1.88-1.04.88-1.17 0-1.04-.97-1.04-.97v-.05l-3.02.42s.12 2.75 4.06 2.75c3.93 0 4.06-2.75 4.06-2.75l-3.02-.42Zm-6.18 6.77v6.58h2.54l.03-.1 3.66-4.72v2.38l-.8.31v2.13h5.06l.17-2.3-.97-.12v-4.16l.88-.13v-2.45h-4.05l-.02.05-3.04 3.96v-4.01H97.4l-.17 2.45.88.13Z"/><path d="M38.73 35.22c.24.1.5.14.76.13 1.31 0 2.17-1.03 2.35-6.43l-1.71-.17.16-2.47h11.39v2.45l-1.2.13v6.76l1.34.1-.14 2.47H45.7l-.17-2.45 1.31-.13v-6.66h-1.76c-.04 7.14-2.06 9.64-4.83 9.64-1.17 0-1.66-.4-1.66-.4l.14-2.97Z"/><path fill-rule="evenodd" clip-rule="evenodd" d="M58.07 36.08c-1.02 0-1.64-.33-1.88-1.36h5.21c.3-.6.46-1.25.45-1.92 0-2.63-1.5-4.16-4.37-4.16-2.7 0-4.86 1.55-4.86 4.93 0 3.37 2 5.02 5.28 5.02 2.59 0 3.76-1.7 3.76-1.7l-1.55-1.71c-.55.53-1.28.85-2.04.9Zm.62-3.61h-2.57c.12-.98.5-1.43 1.38-1.43.95 0 1.2.55 1.2 1.06l-.01.37Z"/><path d="m68.32 32.98-.16-1.56a1.32 1.32 0 0 0-.93-.37c-.77 0-1.27.42-1.27 2.31 0 1.95.7 2.77 1.9 2.77 1.1 0 2.07-1.15 2.07-1.15l1.47 1.65s-1 1.96-3.9 1.96c-3.57 0-5.15-2.11-5.15-5.17 0-2.88 1.77-4.79 4.37-4.79.65.04 1.28.26 1.8.65l.32-.46h2.1l-.03 4.16h-2.59Zm9.39 0-.17-1.56a1.32 1.32 0 0 0-.93-.37c-.76 0-1.27.42-1.27 2.31 0 1.95.71 2.77 1.91 2.77 1.1 0 2.06-1.15 2.06-1.15l1.48 1.65s-1 1.96-3.9 1.96c-3.57 0-5.16-2.11-5.16-5.17 0-2.88 1.77-4.79 4.37-4.79.65.04 1.28.26 1.8.65l.32-.46h2.1l-.04 4.16H77.7Zm3.79 5.2-.15-2.45.95-.13v-4l-.87-.13.16-2.45h4.17v3.26h2.6v-1.17l-.56-.13v-1.96h4.7v2.45l-.7.13v4.16l.96.12-.16 2.3h-4.25v-3.5h-2.59v1.41l.66.12-.17 1.97H81.5Z"/><path fill-rule="evenodd" clip-rule="evenodd" d="M98.97 36.08c-1.02 0-1.64-.33-1.88-1.36h5.21c.31-.6.47-1.25.46-1.92 0-2.62-1.51-4.16-4.37-4.16-2.7 0-4.87 1.55-4.87 4.93 0 3.37 2 5.02 5.29 5.02 2.58 0 3.75-1.7 3.75-1.7l-1.55-1.71c-.55.53-1.27.85-2.04.9Zm.62-3.61h-2.57c.13-.98.51-1.43 1.39-1.43.94 0 1.2.55 1.2 1.06l-.02.37Zm3.7 7.84.16 2.46h5.05l.16-2.31-.96-.11v-2.28h.1s.77.52 2.48.52c2.52 0 4.18-2.35 4.18-5.34 0-2.73-1.5-4.62-4.07-4.62-1.93 0-2.84.76-2.84.76h-.13l-.16-.37h-3.72l-.16 2.46.88.13v8.57l-.97.13Zm4.4-4.8V31.9a1.85 1.85 0 0 1 1.46-.7c1.3 0 1.72.31 1.72 2.15 0 1.83-.5 2.71-1.79 2.71a1.85 1.85 0 0 1-1.38-.55Z"/><path d="M52.23 47.18v-.83l-.41-.45-.88 1.28h-.82l1.24-1.78-1.2-1.36h.82l1.25 1.47v-1.47h.68v1.47l1.25-1.47h.82l-1.19 1.36 1.23 1.78h-.82l-.88-1.28-.4.45v.83h-.69Zm6.34 0h-.68v-2.05l-1.36 2.05h-.65v-3.13h.68v2.05l1.37-2.06h.64v3.14Zm3.83-3.14v3.14h-.68v-2.51h-.9v.23c0 1.85-.31 2.32-1.02 2.32-.12 0-.24-.01-.36-.04l.05-.57h.1c.38 0 .59-.24.59-1.92v-.65h2.22Z"/><path fill-rule="evenodd" clip-rule="evenodd" d="M64.45 44.04a1.67 1.67 0 0 0-1 1.57 1.63 1.63 0 0 0 1.66 1.62 1.66 1.66 0 0 0 1.54-1.03 1.68 1.68 0 0 0-1.24-2.27 1.65 1.65 0 0 0-.96.1Zm1.34.88c.18.19.27.44.26.7h.01a.94.94 0 0 1-.92.98.94.94 0 0 1-.89-.61.96.96 0 0 1-.06-.38.94.94 0 0 1 .93-.98c.25 0 .5.1.67.3Zm3.04-1.86-.4.07a.75.75 0 0 0 1.5 0l-.4-.07a.36.36 0 0 1-.7 0Zm1 4.12h.68v-3.13h-.64L68.5 46.1v-2.06h-.67v3.14h.64l1.36-2.05v2.05Z"/><path d="M73.48 44.04h.69v1.38l1.26-1.38h.83L75 45.38l1.33 1.8h-.82l-.97-1.33-.36.37v.96h-.69v-3.14Z"/><path fill-rule="evenodd" clip-rule="evenodd" d="M77.81 44.04a1.67 1.67 0 0 0-1 1.57h.02a1.63 1.63 0 0 0 1.64 1.62 1.66 1.66 0 0 0 1.54-1.03 1.67 1.67 0 0 0-1.24-2.27 1.65 1.65 0 0 0-.96.1Zm1.34.88c.18.19.27.44.26.7a.99.99 0 0 1-1.19.95.98.98 0 0 1-.75-.8c-.03-.2 0-.4.07-.57.17-.37.54-.6.94-.57.26 0 .5.1.67.3Z"/><path d="M81.18 44.04h.74l.82 1.33.82-1.33h.74v3.14h-.68v-2.04l-.88 1.33h-.02l-.86-1.32v2.03h-.68v-3.14Zm4.31 0h2.6v3.14h-.68v-2.51h-1.23v2.51h-.69v-3.14Zm6.44 0v3.14h-.69v-2.51h-.9v.23c0 1.85-.3 2.32-1 2.32-.13 0-.25-.01-.37-.04l.05-.57h.1c.37 0 .58-.24.58-1.92v-.65h2.23Zm1.19 0h2.35v.62H93.8v.63h1.47v.62H93.8v.66h1.7v.61h-2.38v-3.14Zm3.43 0h.69v1.38l1.26-1.38h.83l-1.27 1.34 1.33 1.8h-.83l-.97-1.33-.35.37v.96h-.69v-3.14Zm3.33 1.57a1.6 1.6 0 0 1 1.63-1.62c.45-.01.9.17 1.2.51l-.4.48a1.1 1.1 0 0 0-.8-.35.98.98 0 0 0-.91.98c0 .52.4.95.9.99.31 0 .61-.14.82-.37l.44.47a1.65 1.65 0 0 1-2.88-1.09ZM9.51 11.5h1.2v2.91H9.5V11.5Zm13.25-.13h1.2v3.04h-1.2v-3.04Z"/><path d="M12.8 8.41a2.71 2.71 0 0 1-4 2.25 2.7 2.7 0 0 1-1.3-3.13 2.73 2.73 0 0 1 2.74-1.98c.61.04 1.2.28 1.65.68a5.11 5.11 0 0 1 0-1.43 3.86 3.86 0 0 0-5.57 2.64 3.92 3.92 0 0 0 3.97 4.73 3.88 3.88 0 0 0 3.52-2.73A4.86 4.86 0 0 1 12.8 8.4Zm10.56-4.07c-.65 0-1.29.17-1.86.48a4.7 4.7 0 0 1-.02 1.48 2.69 2.69 0 0 1 4.47 1.16 2.72 2.72 0 0 1-1.3 3.17 2.7 2.7 0 0 1-3.98-2.34c-.29.4-.63.76-1.03 1.06a3.88 3.88 0 0 0 7.59-1.49 3.9 3.9 0 0 0-3.87-3.53v.01Z"/><path fill-rule="evenodd" clip-rule="evenodd" d="M11.24 5.48a5.47 5.47 0 0 0 5.45 5.49A5.47 5.47 0 0 0 16.7 0a5.47 5.47 0 0 0-5.45 5.48Zm1.5-1.64a4.27 4.27 0 1 1 7.5 4.03 4.3 4.3 0 0 1-4.38 1.83 4.25 4.25 0 0 1-3.36-3.38c-.16-.83-.08-1.7.25-2.48Z"/><path d="m18.5 5.06-1.75 1.7-1.69-1.7-.83.87L16.1 7.8v6.9h1.2V7.95l2.05-2.01-.85-.86Zm8.98 42.7c-2.8 0-4.57-1.87-5.39-3.03-.81 1.14-2.58 3.03-5.38 3.03-2.79 0-4.6-1.9-5.43-3.03-.81 1.14-2.58 3.03-5.38 3.03-3.92 0-5.83-3.71-5.89-3.87l1.06-.53-.55.28.53-.27c.02.03 1.66 3.21 4.85 3.21 3.18 0 4.83-3.18 4.85-3.2l.52-1.04.53 1.03c.02.03 1.72 3.21 4.91 3.21 3.2 0 4.84-3.18 4.85-3.2l.53-1.05.53 1.04c0 .03 1.67 3.21 4.86 3.21 3.18 0 4.83-3.18 4.85-3.2l1.05.52c-.08.15-1.98 3.86-5.9 3.86Z"/><path fill-rule="evenodd" clip-rule="evenodd" d="M4.4 35.78V13.75h24.85v22.03L16.8 42.33 4.4 35.78Zm12.37 5.2 11.3-5.93V15.1H5.48v19.96l11.28 5.92Z"/><path fill-rule="evenodd" clip-rule="evenodd" d="M16.78 16.3H6.69v18.01l4.41 2.32.82.43 4.85 2.55 10.08-5.3v-18H16.78Zm-2.62 13.18a1.82 1.82 0 0 1-1.97 2.97 1.8 1.8 0 0 1-.59-.4l-1.3-1.3a1.82 1.82 0 0 1 1.28-3.1 1.79 1.79 0 0 1 1.28.52l.37.37 2-2.01.7.72-1.99 2 .22.23Zm7.61 2.56 1.3-1.31v.01a1.83 1.83 0 0 0-.58-2.96 1.8 1.8 0 0 0-1.97.4l-.37.36-2.75-2.77 2.58-2.59 1.55 1.56.71-.72-1.55-1.56.64-.64 1.54 1.56.7-.72-2.25-2.26-4.64 4.67-4.65-4.67-2.25 2.26.71.72 1.55-1.56.66.62L11.15 24l.72.74 1.53-1.56 6.03 6.08-.22.22a1.82 1.82 0 0 0 .82 3.04 1.8 1.8 0 0 0 1.74-.48Z"/><path d="M32.33 36.86c0 .03-1.65 3.22-4.85 3.22-2.17 0-3.64-1.48-4.34-2.43l-6.35 3.33-6.5-3.4c-.69.93-2.16 2.5-4.39 2.5-3.18 0-4.82-3.18-4.85-3.23L0 37.4c.08.16 1.98 3.87 5.9 3.87 2.79 0 4.57-1.89 5.39-3.03.82 1.14 2.63 3.03 5.43 3.03s4.56-1.87 5.37-3.02c.82 1.14 2.6 3.02 5.39 3.02 3.92 0 5.82-3.7 5.89-3.87l-1.04-.54Zm-10.53-8.2a.79.79 0 0 0-.56.23l-1.3 1.3a.8.8 0 0 0 0 1.14c.31.3.8.3 1.12 0l1.3-1.3a.8.8 0 0 0-.56-1.37Zm-9.65.23a.8.8 0 0 0-1.34.36.8.8 0 0 0 .21.77l1.3 1.31a.81.81 0 0 0 1.13 0 .8.8 0 0 0 0-1.13l-1.3-1.31Z"/></g><defs><clipPath id="a"><path fill="#fff" d="M0 0h114.75v48H0z"/></clipPath></defs></svg>