<svg width="34" height="30" fill="none" xmlns="http://www.w3.org/2000/svg"><path fill-rule="evenodd" clip-rule="evenodd" d="M9.618.778a4.889 4.889 0 0 0-4.89 4.889V9.556a1 1 0 0 0 2 0V5.667a2.889 2.889 0 0 1 2.89-2.89h18.664a2.889 2.889 0 0 1 2.89 2.89v18.667a2.889 2.889 0 0 1-2.89 2.888H9.618a2.889 2.889 0 0 1-2.89-2.889v-3.888a1 1 0 1 0-2 0v3.889c0 2.7 2.19 4.888 4.89 4.888h18.664c2.7 0 4.89-2.189 4.89-4.889V5.668c0-2.7-2.19-4.89-4.89-4.89H9.618Zm5.491 8.282a1 1 0 0 1 1.414 0l5.265 5.265c.416.416.416 1.09 0 1.506l-5.265 5.264a1 1 0 0 1-1.414-1.414L18.79 16H1.83a1 1 0 0 1 0-2h16.806l-3.526-3.526a1 1 0 0 1 0-1.415Z" fill="#40454F"/></svg>